<?xml version="1.0" standalone="no"?>
<!DOCTYPE svg PUBLIC "-//W3C//DTD SVG 20010904//EN"
 "http://www.w3.org/TR/2001/REC-SVG-20010904/DTD/svg10.dtd">
<svg version="1.0" xmlns="http://www.w3.org/2000/svg"
 width="826.000000pt" height="826.000000pt" viewBox="0 0 826.000000 826.000000"
 preserveAspectRatio="xMidYMid meet">
<metadata>
Created by potrace 1.14, written by Peter Selinger 2001-2017
</metadata>
<g transform="translate(0.000000,826.000000) scale(0.100000,-0.100000)"
fill="#000000" stroke="none">
<path d="M350 4136 l0 -4124 1838 0 c1263 0 1841 3 1849 10 8 6 13 6 13 1 0
-11 132 -9 150 2 9 6 11 4 5 -5 -5 -9 -4 -11 3 -6 7 4 126 9 264 12 219 4 383
10 383 14 0 1 25 3 55 6 30 2 80 6 110 9 30 2 82 7 115 10 56 5 90 8 175 20
19 2 55 6 80 9 25 3 59 8 75 11 17 2 46 7 65 9 63 8 155 23 155 26 0 1 15 3
34 6 19 2 44 6 55 9 12 3 35 7 51 11 17 3 37 8 45 11 8 3 26 7 40 9 14 1 68
14 120 29 52 14 100 27 105 29 6 1 28 8 50 14 22 7 72 22 110 33 39 12 90 28
115 37 25 8 47 15 50 15 3 0 24 11 48 24 23 13 42 21 42 19 0 -10 278 119 290
134 3 3 21 13 40 22 19 9 52 28 73 42 21 14 40 26 42 26 8 0 124 77 140 93 9
10 19 17 23 17 4 0 30 21 57 46 28 26 60 53 72 61 13 9 20 19 17 24 -3 5 0 9
6 9 18 0 158 153 207 225 15 22 30 42 33 45 4 3 13 16 19 28 7 13 22 35 34 48
11 13 22 31 23 39 1 8 11 27 22 42 18 27 94 170 98 186 1 4 2 8 4 10 1 1 3 9
5 17 2 8 17 50 33 93 25 64 37 105 57 187 1 3 5 23 10 45 4 22 10 49 12 60 16
76 16 76 29 195 7 69 8 342 1 395 -3 22 -9 58 -12 80 -3 22 -8 54 -10 70 -2
17 -6 46 -10 65 -4 19 -8 41 -8 48 0 6 -4 12 -9 12 -5 0 -7 4 -4 8 4 7 -16 92
-31 132 -3 8 -8 26 -10 40 -2 14 -8 29 -14 35 -5 5 -9 15 -9 23 0 7 -27 68
-59 135 -33 67 -60 126 -60 130 0 5 -8 16 -18 25 -16 15 -42 53 -88 131 -6 10
-17 24 -25 33 -8 8 -31 34 -50 57 -55 67 -174 191 -183 191 -4 0 -18 11 -31
25 -13 14 -26 25 -30 25 -3 0 -15 8 -25 17 -36 34 -87 74 -107 86 -12 7 -40
25 -63 40 -23 15 -47 25 -53 21 -6 -4 -8 -3 -5 3 4 5 -6 16 -21 24 -15 8 -49
27 -77 43 -27 16 -56 29 -62 29 -7 0 -13 4 -13 8 0 4 -11 10 -25 13 -14 4 -55
20 -92 37 -36 16 -68 28 -70 25 -3 -3 -12 2 -20 10 -12 11 -18 12 -29 3 -12
-10 -13 -9 -8 5 3 9 2 16 -2 17 -62 6 -106 16 -113 26 -3 5 -19 9 -36 11 -16
2 -46 8 -65 15 -19 6 -39 11 -45 12 -9 1 -88 16 -107 21 -5 1 -21 2 -38 3 -29
1 -44 21 -17 21 34 0 447 193 455 212 2 5 10 8 18 8 8 0 14 3 14 8 0 4 18 15
39 25 21 11 49 29 63 42 13 12 33 25 44 29 19 6 50 31 126 102 20 19 41 34 47
34 5 0 12 8 15 18 3 9 19 26 35 37 16 10 28 22 25 26 -2 4 1 11 8 16 16 10 96
100 122 137 11 15 28 37 38 48 10 12 18 26 18 31 0 5 6 15 14 21 8 6 33 47 57
91 23 44 49 88 57 98 8 9 12 17 8 17 -3 0 7 26 22 58 26 50 67 158 78 202 2 8
12 48 23 88 10 39 17 72 15 72 -2 0 1 12 7 28 6 15 12 48 14 73 3 26 8 64 13
86 10 42 9 473 0 488 -3 6 -9 35 -12 66 -4 31 -11 71 -16 88 -5 17 -9 33 -10
36 -1 7 -5 22 -30 110 -12 44 -23 87 -25 95 -16 73 -147 362 -195 430 -11 15
-20 33 -20 39 0 7 -6 14 -14 17 -8 3 -17 13 -20 22 -10 29 -36 67 -83 117 -18
19 -30 35 -28 35 3 0 -21 26 -52 57 -32 32 -62 57 -66 55 -5 -1 -6 2 -3 7 3 5
-13 24 -36 42 -24 19 -60 49 -81 69 -21 19 -39 33 -40 30 -2 -3 -18 10 -37 27
-19 18 -41 33 -47 33 -7 0 -13 5 -13 10 0 6 -7 10 -15 10 -8 0 -15 3 -15 8 0
4 -17 16 -37 27 -21 10 -52 29 -70 42 -17 13 -34 23 -37 23 -3 0 -37 15 -76
34 -38 19 -70 32 -70 29 0 -4 -8 1 -17 9 -16 13 -99 52 -113 53 -3 1 -15 6
-26 13 -12 6 -24 8 -28 4 -4 -3 -11 -1 -15 6 -4 7 -16 14 -27 16 -10 2 -30 8
-44 14 -14 5 -31 7 -39 4 -8 -3 -11 0 -7 7 4 7 -1 11 -13 12 -24 2 -23 1 -75
17 -22 6 -44 8 -49 5 -6 -3 -7 -1 -3 5 4 8 -1 12 -13 13 -24 2 -30 3 -51 12
-8 4 -26 9 -40 11 -14 3 -40 9 -59 15 -18 6 -36 10 -40 9 -3 0 -8 1 -11 2 -16
6 -48 12 -70 14 -14 1 -29 4 -35 7 -5 4 -18 5 -27 4 -10 -2 -18 0 -18 4 0 4
-13 6 -30 3 -16 -2 -30 0 -30 5 0 5 -6 10 -12 11 -81 6 -127 12 -148 17 -14 3
-45 8 -70 10 -25 3 -56 7 -70 10 -14 3 -50 8 -80 10 -30 2 -73 7 -95 10 -57 7
-212 8 -225 0 -5 -3 -10 -2 -10 3 0 6 -6 9 -12 9 -7 -1 -51 2 -98 7 -47 4
-152 8 -235 9 -92 1 -153 5 -157 12 -5 7 -8 6 -8 -1 0 -8 -11 -10 -32 -5 -18
4 -900 8 -1960 9 l-1928 1 0 -4123z m4290 2399 c47 -4 123 -13 169 -21 45 -7
87 -12 91 -9 5 3 11 1 14 -4 3 -4 25 -12 48 -16 61 -11 59 -11 129 -35 34 -12
84 -35 111 -51 27 -16 53 -29 58 -29 6 0 10 -4 10 -10 0 -5 4 -10 10 -10 19 0
91 -67 135 -125 44 -57 69 -103 84 -155 7 -25 16 -52 20 -60 8 -16 15 -93 15
-170 1 -66 -10 -139 -28 -190 -9 -25 -16 -53 -16 -63 0 -10 -6 -20 -14 -23 -9
-3 -12 -12 -9 -21 4 -11 2 -14 -5 -9 -7 4 -12 1 -12 -7 0 -8 -7 -20 -16 -28
-8 -7 -13 -20 -11 -30 3 -12 0 -16 -9 -12 -8 3 -17 -3 -21 -13 -3 -11 -21 -32
-40 -48 -18 -15 -30 -33 -26 -39 3 -6 1 -7 -5 -3 -6 4 -19 -2 -29 -14 -10 -11
-22 -20 -28 -20 -6 0 -18 -9 -27 -19 -9 -11 -35 -25 -57 -32 -23 -7 -41 -16
-41 -21 0 -4 -6 -8 -14 -8 -8 0 -16 -4 -18 -10 -1 -5 -15 -11 -30 -12 -16 -1
-28 -6 -28 -10 0 -4 -7 -8 -16 -8 -10 0 -14 -5 -10 -16 4 -10 2 -13 -7 -7 -17
11 -29 11 -50 0 -10 -5 -31 -11 -45 -13 -15 -3 -32 -10 -39 -16 -7 -6 -13 -7
-13 -2 0 4 -5 3 -11 -3 -6 -6 -18 -9 -27 -6 -8 4 -13 2 -9 -3 3 -5 -8 -9 -26
-9 -18 0 -36 -2 -42 -5 -5 -2 -13 -5 -17 -6 -5 -1 -9 -3 -10 -4 -3 -2 -30 -5
-178 -14 -196 -13 -285 -15 -575 -15 -159 0 -298 0 -307 0 -27 -1 -43 -1 -158
-2 -58 0 -109 0 -115 0 -5 0 -236 1 -512 2 l-502 2 1 716 c0 394 2 724 4 733
5 16 77 17 1087 13 595 -2 1120 -7 1167 -10z m-2132 -3120 c23 0 42 2 42 6 0
3 7 6 15 6 8 0 15 -3 15 -6 0 -8 54 -6 68 3 6 3 13 2 17 -4 4 -6 11 -7 17 -4
11 7 552 7 1073 0 165 -2 428 -5 585 -6 157 -1 293 -7 303 -12 11 -6 17 -5 17
2 0 6 5 8 10 5 15 -9 56 -16 125 -20 33 -2 71 -6 85 -8 14 -3 45 -8 70 -11 25
-3 60 -10 78 -15 17 -5 32 -8 32 -5 0 3 8 0 19 -5 10 -6 33 -13 51 -16 18 -3
40 -9 49 -14 9 -5 21 -6 28 -4 6 2 14 -1 18 -6 3 -6 13 -11 21 -11 8 0 34 -9
56 -20 23 -11 45 -20 49 -20 14 0 113 -63 161 -102 26 -21 51 -38 57 -38 6 0
11 -4 11 -9 0 -5 17 -28 38 -50 55 -60 58 -64 91 -126 43 -79 78 -192 77 -243
-1 -23 1 -42 4 -42 5 0 5 -98 0 -110 -1 -3 -2 -12 -1 -21 6 -62 -69 -260 -124
-327 -40 -48 -111 -118 -150 -147 -22 -17 -42 -32 -45 -35 -30 -30 -239 -122
-309 -136 -14 -3 -29 -7 -33 -10 -5 -3 -24 -8 -41 -11 -18 -3 -34 -8 -37 -12
-3 -4 -16 -7 -30 -6 -14 0 -34 -4 -45 -9 -24 -12 -37 -14 -87 -18 -21 -2 -38
-5 -38 -9 0 -3 -28 -5 -62 -4 -35 0 -73 -3 -86 -7 -51 -17 -295 -22 -1144 -22
-489 0 -888 -3 -888 -6 0 -10 -55 -5 -62 5 -5 6 -8 5 -8 -3 0 -7 -5 -10 -10
-7 -6 4 -18 1 -27 -7 -11 -8 -14 -9 -10 -1 9 14 -60 12 -83 -2 -9 -5 -11 -4
-6 3 5 8 0 11 -16 8 -13 -2 -29 2 -37 8 -12 9 -13 8 -7 -3 7 -11 5 -11 -10 -3
-18 10 -19 24 -15 254 2 134 4 506 5 828 l1 585 28 1 c15 1 30 4 34 8 4 3 9 3
12 -1 3 -5 25 -8 49 -8z"/>
</g>
</svg>
